<mxfile host="app.diagrams.net" modified="2023-11-19T17:30:26.816Z" agent="Mozilla/5.0 (X11; Linux x86_64; rv:109.0) Gecko/20100101 Firefox/119.0" etag="8oEQh1pKocnYm_owxutj" version="22.1.3" type="device">
  <diagram name="Page-1" id="nJbTRbrrV3Z3or0_J4dT">
    <mxGraphModel dx="2963" dy="1689" grid="1" gridSize="10" guides="1" tooltips="1" connect="1" arrows="1" fold="1" page="1" pageScale="1" pageWidth="850" pageHeight="1100" math="0" shadow="0">
      <root>
        <mxCell id="0" />
        <mxCell id="1" parent="0" />
        <mxCell id="n42bDRlxxmmbjbR2qBaj-1" value="" style="rounded=0;whiteSpace=wrap;html=1;" vertex="1" parent="1">
          <mxGeometry x="120" y="440" width="1920" height="1080" as="geometry" />
        </mxCell>
        <mxCell id="n42bDRlxxmmbjbR2qBaj-2" value="&lt;font style=&quot;font-size: 32px;&quot;&gt;Algoritmus-választó&lt;/font&gt;" style="rounded=0;whiteSpace=wrap;html=1;" vertex="1" parent="1">
          <mxGeometry x="120" y="440" width="190" height="1080" as="geometry" />
        </mxCell>
        <mxCell id="n42bDRlxxmmbjbR2qBaj-3" value="&lt;font style=&quot;font-size: 32px;&quot;&gt;Szerkesztő&lt;/font&gt;" style="rounded=0;whiteSpace=wrap;html=1;" vertex="1" parent="1">
          <mxGeometry x="310" y="490" width="1280" height="830" as="geometry" />
        </mxCell>
        <mxCell id="n42bDRlxxmmbjbR2qBaj-4" value="&lt;font style=&quot;font-size: 32px;&quot;&gt;Kimenet / Hibaüzenetek&lt;/font&gt;" style="rounded=0;whiteSpace=wrap;html=1;" vertex="1" parent="1">
          <mxGeometry x="310" y="1320" width="1280" height="200" as="geometry" />
        </mxCell>
        <mxCell id="n42bDRlxxmmbjbR2qBaj-6" value="&lt;font style=&quot;font-size: 32px;&quot;&gt;Hívási verem&lt;/font&gt;" style="rounded=0;whiteSpace=wrap;html=1;" vertex="1" parent="1">
          <mxGeometry x="1590" y="440" width="450" height="290" as="geometry" />
        </mxCell>
        <mxCell id="n42bDRlxxmmbjbR2qBaj-7" value="&lt;font style=&quot;font-size: 32px;&quot;&gt;Változók nevei és értékei&lt;/font&gt;" style="rounded=0;whiteSpace=wrap;html=1;" vertex="1" parent="1">
          <mxGeometry x="1590" y="730" width="450" height="280" as="geometry" />
        </mxCell>
        <mxCell id="n42bDRlxxmmbjbR2qBaj-8" value="&lt;font style=&quot;font-size: 32px;&quot;&gt;Verem&lt;/font&gt;" style="rounded=0;whiteSpace=wrap;html=1;" vertex="1" parent="1">
          <mxGeometry x="1590" y="1010" width="450" height="250" as="geometry" />
        </mxCell>
        <mxCell id="n42bDRlxxmmbjbR2qBaj-9" value="&lt;div&gt;&lt;font style=&quot;font-size: 32px;&quot;&gt;Memória címek és&amp;nbsp;&lt;/font&gt;&lt;/div&gt;&lt;div&gt;&lt;font style=&quot;font-size: 32px;&quot;&gt;azok értékei&lt;/font&gt;&lt;/div&gt;" style="rounded=0;whiteSpace=wrap;html=1;" vertex="1" parent="1">
          <mxGeometry x="1590" y="1260" width="450" height="260" as="geometry" />
        </mxCell>
        <mxCell id="n42bDRlxxmmbjbR2qBaj-10" value="" style="rounded=0;whiteSpace=wrap;html=1;" vertex="1" parent="1">
          <mxGeometry x="310" y="440" width="1280" height="80" as="geometry" />
        </mxCell>
        <mxCell id="n42bDRlxxmmbjbR2qBaj-14" value="&lt;font style=&quot;font-size: 32px;&quot;&gt;Fordítás&lt;/font&gt;" style="rounded=1;whiteSpace=wrap;html=1;" vertex="1" parent="1">
          <mxGeometry x="920" y="450" width="140" height="60" as="geometry" />
        </mxCell>
        <mxCell id="n42bDRlxxmmbjbR2qBaj-16" value="&lt;font style=&quot;font-size: 32px;&quot;&gt;Futtatás&lt;/font&gt;" style="rounded=1;whiteSpace=wrap;html=1;" vertex="1" parent="1">
          <mxGeometry x="1090" y="450" width="140" height="60" as="geometry" />
        </mxCell>
        <mxCell id="n42bDRlxxmmbjbR2qBaj-17" value="&lt;font style=&quot;font-size: 32px;&quot;&gt;Léptetés&lt;/font&gt;" style="rounded=1;whiteSpace=wrap;html=1;" vertex="1" parent="1">
          <mxGeometry x="1260" y="450" width="140" height="60" as="geometry" />
        </mxCell>
        <mxCell id="n42bDRlxxmmbjbR2qBaj-18" value="&lt;font style=&quot;font-size: 32px;&quot;&gt;Vissza&lt;/font&gt;" style="rounded=1;whiteSpace=wrap;html=1;" vertex="1" parent="1">
          <mxGeometry x="1430" y="450" width="140" height="60" as="geometry" />
        </mxCell>
      </root>
    </mxGraphModel>
  </diagram>
</mxfile>
